<?xml version="1.0" encoding="utf-8"?>
<!-- Generator: Adobe Illustrator 16.0.0, SVG Export Plug-In . SVG Version: 6.00 Build 0)  -->
<!DOCTYPE svg PUBLIC "-//W3C//DTD SVG 1.1//EN" "http://www.w3.org/Graphics/SVG/1.1/DTD/svg11.dtd">
<svg version="1.1" id="Layer_1" xmlns="http://www.w3.org/2000/svg" xmlns:xlink="http://www.w3.org/1999/xlink" x="0px" y="0px"
	 width="800px" height="223.142px" viewBox="0 0 800 223.142" enable-background="new 0 0 800 223.142" xml:space="preserve">
<g>
	<path fill="#646464" d="M136.544,79.157c0,1.81-0.241,3.794-0.723,5.951c-0.482,2.159-0.946,3.238-1.394,3.238
		c-0.349,0-0.522-0.175-0.522-0.522c0-0.105,0.034-0.26,0.104-0.47c0.923-2.436,1.385-5.065,1.385-7.885
		c0-4.384-1.307-7.91-3.919-10.571c-2.614-2.662-6.063-3.994-10.35-3.994c-5.785,0-11.742,1.898-17.875,5.697
		c5.226,4.182,7.839,8.921,7.839,14.218c0,4.458-1.793,8.346-5.377,11.654c-3.585,3.311-7.78,4.966-12.585,4.966
		c-1.88,0-3.9-0.375-6.057-1.131c-2.159-0.755-3.237-1.466-3.237-2.134c0.069-0.211,0.208-0.314,0.417-0.314
		c0.174,0,0.453,0.105,0.836,0.318c2.158,1.234,4.333,1.849,6.526,1.849c3.968,0,7.369-1.705,10.207-5.121
		c2.835-3.417,4.254-7.491,4.254-12.23c0-4.079-1.464-7.72-4.391-10.925c-7.562,5.646-14.74,15.576-21.534,29.791
		c-4.112,8.607-7.876,14.813-11.291,18.611c-3.415,3.798-8.206,7.229-14.374,10.295c-7.283,3.555-13.782,5.332-19.497,5.332
		c-4.669,0-8.555-1.071-11.655-3.214c-3.103-2.143-4.652-4.818-4.652-8.025c0-1.775,0.532-3.309,1.595-4.599
		c1.062-1.288,2.326-1.934,3.79-1.934c2.125,0,3.188,1.186,3.188,3.554c0,1.187-0.358,2.194-1.071,3.032
		c-0.715,0.836-1.595,1.255-2.64,1.255c-1.812,0-2.683-0.941-2.613-2.823c0.034-0.766-0.035-1.15-0.209-1.15
		c-0.558,0-0.836,0.922-0.836,2.77c0,2.892,1.419,5.299,4.261,7.214c2.839,1.916,6.419,2.873,10.74,2.873
		c7.631,0,14.548-2.821,20.751-8.467c2.718-2.473,5.035-5,6.952-7.58c2.091-2.787,6.655-9.547,13.694-20.278
		c3.52-5.297,7.666-10.612,12.44-15.943c4.774-5.332,8.833-9.148,12.178-11.448c-5.436-4.632-13.415-6.952-23.938-6.952
		c-14.705,0-27.493,5.315-38.365,15.943c-8.921,8.711-13.38,16.918-13.38,24.617c0,3.905,1.254,7.005,3.762,9.305
		c2.509,2.299,5.907,3.451,10.193,3.451c7.003,0,14.244-3.364,21.717-10.089c7.475-6.725,11.212-13.258,11.212-19.601
		c0-5.053-2.596-7.58-7.789-7.58c-5.192,0-10.759,2.898-16.699,8.696c-5.942,5.798-8.912,11.237-8.912,16.321
		c0,1.25,0.42,2.333,1.261,3.237c0.84,0.906,1.822,1.357,2.941,1.357c0.595,0,0.894,0.158,0.894,0.471
		c0,0.279-0.333,0.417-0.997,0.417c-1.68,0-3.095-0.756-4.25-2.271c-1.155-1.515-1.732-3.368-1.732-5.562
		c0-5.431,2.979-10.723,8.938-15.875c5.959-5.155,12.074-7.732,18.347-7.732c5.992,0,8.989,2.772,8.989,8.312
		c0,6.76-3.815,13.591-11.446,20.491c-7.631,6.898-15.158,10.348-22.58,10.348c-4.845,0-8.721-1.455-11.63-4.364
		c-2.91-2.908-4.365-6.803-4.365-11.683c0-9.86,5.567-18.859,16.7-26.997c11.134-8.136,23.443-12.203,36.928-12.203
		c10.245,0,18.851,2.283,25.82,6.845c6.377-3.971,12.544-5.958,18.504-5.958c4.669,0,8.423,1.392,11.264,4.179
		C135.124,70.926,136.544,74.598,136.544,79.157z"/>
	<path fill="#646464" d="M116.212,96.866c0,1.392-2.179,4.153-6.534,8.285c-0.208,1.082-0.314,2.021-0.314,2.824
		c0,2.019,0.924,5.227,2.771,9.615c0.94,2.196,1.411,4.044,1.411,5.542c0,3.135-1.524,5.854-4.572,8.153
		c-3.05,2.301-6.666,3.449-10.846,3.449c-2.371,0-4.26-0.671-5.671-2.01c-1.412-1.342-2.117-3.146-2.117-5.412
		c0-2.614,0.932-5.156,2.796-7.629c1.864-2.475,3.79-3.711,5.776-3.711c0.349,0,0.662,0.07,0.94,0.208l4.182-5.121
		c1.254-1.499,2.927-3.573,5.018-6.222c0.591-2.439,1.498-4.528,2.717-6.271c1.22-1.742,2.421-2.615,3.607-2.615
		C115.933,95.951,116.212,96.256,116.212,96.866z M108.947,117.486c0-1.044-0.036-2.081-0.105-3.108
		c-0.07-1.028-0.104-2.501-0.104-4.417c0-1.569,0.069-2.875,0.209-3.922c-1.952,2.477-4.774,5.959-8.468,10.455
		c0.662,0.557,0.994,1.236,0.994,2.037c0,2.058-1.691,3.451-5.071,4.182c-1.358,0.314-2.535,1.054-3.528,2.221
		c-0.993,1.168-1.489,2.399-1.489,3.687c0,1.394,0.505,2.56,1.515,3.501c1.01,0.94,2.266,1.412,3.764,1.412
		c2.927,0,5.706-1.699,8.336-5.097C107.63,125.039,108.947,121.389,108.947,117.486z"/>
	<path fill="#646464" d="M137.303,117.148c-0.036,0.103-0.21,0.383-0.523,0.837l-2.25,3.088
		c-6.56,9.107-11.565,13.661-15.018,13.661c-1.64,0-3.01-0.582-4.109-1.75s-1.648-2.622-1.648-4.364c0-2.021,1.203-5.088,3.607-9.2
		l8.153-13.853c1.081,0.246,1.934,0.367,2.562,0.367c0.941,0,2.264-0.121,3.972-0.367l-11.864,19.498
		c-1.708,2.821-2.562,4.999-2.562,6.533c0,1.566,0.82,2.351,2.46,2.351c3.105,0,8.567-5.53,16.382-16.596
		c0.175-0.346,0.349-0.52,0.523-0.52C137.197,116.834,137.303,116.937,137.303,117.148z M136.544,95.532
		c0,1.222-0.514,2.361-1.542,3.424c-1.028,1.063-2.151,1.596-3.371,1.596c-1.568,0-2.352-0.785-2.352-2.353
		c0-1.15,0.54-2.256,1.62-3.319c1.08-1.061,2.211-1.594,3.398-1.594C135.795,93.286,136.544,94.036,136.544,95.532z"/>
	<path fill="#646464" d="M163.332,117.148c0,0.454-2.46,3.385-7.376,8.793c-5.371,5.862-9.939,8.793-13.706,8.793
		c-2.442,0-4.535-0.933-6.278-2.794c-1.744-1.864-2.616-4.087-2.616-6.665c0-2.927,1.185-5.959,3.555-9.095
		c2.37-3.136,5.558-5.835,9.565-8.102c3.38-1.951,6.132-2.927,8.258-2.927c2.578,0,3.869,1.534,3.869,4.599
		c0,2.405-0.811,4.81-2.431,7.214c-1.621,2.405-3.232,3.606-4.835,3.606c-1.568,0-2.352-0.785-2.352-2.354
		c0-1.845,1.603-3.554,4.809-5.121c2.473-1.22,3.711-2.822,3.711-4.807c0-1.569-0.855-2.354-2.561-2.354
		c-2.893,0-6.448,2.874-10.664,8.625c-4.217,5.75-6.325,10.577-6.325,14.478c0,3.278,1.535,4.913,4.605,4.913
		c4.813,0,11.336-5.424,19.568-16.28c0.454-0.557,0.785-0.836,0.994-0.836C163.262,116.867,163.332,116.972,163.332,117.148z"/>
	<path fill="#646464" d="M194.274,117.094c0,0.557-1.029,1.858-3.086,3.91c-3.069,3.055-5.894,4.585-8.473,4.585
		c-1.081,0-2.042-0.209-2.877-0.628c-4.603,6.516-8.927,9.773-12.973,9.773c-2.092,0-3.879-0.863-5.361-2.586
		s-2.223-3.79-2.223-6.194c0-5.365,3.519-10.539,10.559-15.522c4.947-3.521,9.024-5.28,12.23-5.28c2.997,0,4.496,1.602,4.496,4.81
		c0,4.006-2.109,8.832-6.324,14.478c0.697,0.417,1.481,0.627,2.352,0.627c1.568,0,3.4-0.731,5.496-2.188
		c2.096-1.459,3.809-3.211,5.137-5.264c0.385-0.487,0.665-0.729,0.839-0.729C194.205,116.885,194.274,116.956,194.274,117.094z
		 M185.781,110.064c0-2.822-1.273-4.234-3.816-4.234c-3.171,0-7.038,3.032-11.604,9.094c-4.565,6.063-6.847,11.169-6.847,15.314
		c0,2.407,1.15,3.608,3.449,3.608c3.763,0,7.875-3.101,12.335-9.305c-1.01-1.115-1.515-2.262-1.515-3.448
		c0-1.708,0.679-3.467,2.039-5.279c1.358-1.812,2.682-2.719,3.972-2.719c0.556,0,0.94,0.349,1.15,1.047
		C185.502,112.92,185.781,111.562,185.781,110.064z"/>
	<path fill="#646464" d="M231.125,117.148c0,0.73-2.547,4.116-7.641,10.153c-4.117,4.956-7.362,7.433-9.733,7.433
		c-1.605,0-2.915-0.601-3.925-1.802c-1.012-1.204-1.518-2.71-1.518-4.522c0-1.881,0.558-3.92,1.673-6.114
		c-3.485,4.879-6.151,8.17-7.997,9.878c-1.847,1.706-3.641,2.56-5.383,2.56c-1.847,0-3.397-0.792-4.652-2.377
		c-1.254-1.585-1.881-3.58-1.881-5.984c0-6.69,4.722-12.614,14.165-17.772c4.146-2.299,7.492-3.449,10.036-3.449
		c2.16,0,3.241,1.044,3.241,3.138c0,0.59-0.141,1.375-0.419,2.351l2.666-5.071c1.045,0.246,1.968,0.367,2.77,0.367
		c0.94,0,2.161-0.121,3.66-0.367l-9.253,15.316c-3.206,5.366-4.809,8.904-4.809,10.609c0,1.639,0.681,2.456,2.042,2.456
		c1.395,0,3.629-1.596,6.7-4.789c3.07-3.193,6.193-7.129,9.369-11.807c0.209-0.346,0.4-0.52,0.576-0.52
		C231.019,116.834,231.125,116.937,231.125,117.148z M216.724,108.495c0-1.705-0.784-2.56-2.352-2.56
		c-3.207,0-7.414,3.135-12.623,9.408c-5.21,6.271-7.814,11.343-7.814,15.208c0,2.267,1.01,3.398,3.031,3.398
		c2.405,0,6.568-3.988,12.492-11.968C214.301,115.43,216.724,110.935,216.724,108.495z"/>
	<path fill="#646464" d="M273.096,117.148c0,0.73-2.529,4.116-7.587,10.153c-4.152,4.956-7.414,7.433-9.786,7.433
		c-1.57,0-2.888-0.609-3.952-1.829c-1.064-1.218-1.596-2.716-1.596-4.496c0-1.569,0.322-3.022,0.967-4.364
		c0.645-1.342,2.327-3.998,5.044-7.972c2.823-4.182,4.233-6.846,4.233-7.997c0-1.429-0.749-2.143-2.247-2.143
		c-5.088,0-12.929,9.444-23.521,28.329c-1.708-0.139-2.735-0.208-3.083-0.208c-1.221,0-2.37,0.07-3.449,0.208l8.153-12.909
		c4.633-7.387,6.952-12.005,6.952-13.85c0-1.047-0.437-1.569-1.309-1.569c-1.781,0-5.291,3.753-10.528,11.262
		c-0.315,0.454-0.559,0.698-0.734,0.735c-0.175,0-0.279-0.107-0.314-0.314c0.035-0.177,0.105-0.316,0.209-0.421l0.995-1.308
		c5.339-7.159,8.935-10.738,10.784-10.738c1.187,0,2.198,0.541,3.037,1.621c0.838,1.08,1.257,2.369,1.257,3.868
		c0,2.231-1.307,5.332-3.92,9.303c4.111-5.681,7.273-9.564,9.487-11.654c2.212-2.093,4.259-3.138,6.143-3.138
		c1.532,0,2.821,0.628,3.866,1.883s1.569,2.803,1.569,4.65c0,2.334-1.604,5.905-4.81,10.715c-3.276,4.913-4.912,8.05-4.912,9.408
		c0,1.43,0.715,2.143,2.146,2.143c3.105,0,8.462-5.53,16.069-16.596c0.174-0.346,0.349-0.52,0.523-0.52
		C272.991,116.834,273.096,116.937,273.096,117.148z"/>
	<path fill="#646464" d="M309.841,117.148c0,0.73-2.548,4.116-7.641,10.153c-4.117,4.956-7.362,7.433-9.734,7.433
		c-1.604,0-2.913-0.601-3.925-1.802c-1.011-1.204-1.517-2.71-1.517-4.522c0-1.881,0.557-3.92,1.673-6.114
		c-3.485,4.879-6.151,8.17-7.998,9.878c-1.847,1.706-3.641,2.56-5.382,2.56c-1.848,0-3.398-0.792-4.652-2.377
		s-1.882-3.58-1.882-5.984c0-6.69,4.723-12.614,14.166-17.772c4.146-2.299,7.492-3.449,10.036-3.449c2.16,0,3.24,1.044,3.24,3.138
		c0,0.59-0.14,1.375-0.419,2.351l2.666-5.071c1.046,0.246,1.969,0.367,2.771,0.367c0.941,0,2.162-0.121,3.66-0.367l-9.252,15.316
		c-3.206,5.366-4.808,8.904-4.808,10.609c0,1.639,0.679,2.456,2.041,2.456c1.395,0,3.629-1.596,6.7-4.789
		c3.07-3.193,6.193-7.129,9.369-11.807c0.209-0.346,0.401-0.52,0.576-0.52C309.735,116.834,309.841,116.937,309.841,117.148z
		 M295.44,108.495c0-1.705-0.785-2.56-2.352-2.56c-3.207,0-7.414,3.135-12.624,9.408c-5.209,6.271-7.814,11.343-7.814,15.208
		c0,2.267,1.011,3.398,3.032,3.398c2.404,0,6.568-3.988,12.492-11.968C293.018,115.43,295.44,110.935,295.44,108.495z
		 M315.824,89.365c-3.38,2.659-7.701,5.086-12.962,7.286c-4.043,1.746-6.36,2.62-6.951,2.62c-0.141,0-0.245-0.036-0.314-0.105
		c0-0.103,0.208-0.261,0.626-0.47c8.141-3.875,13.953-8.083,17.433-12.62L315.824,89.365z"/>
	<path fill="#646464" d="M337.359,80.113c-14.635,24.357-23.164,38.68-25.585,42.967c-2.422,4.285-3.633,7.125-3.633,8.519
		c0,1.566,0.663,2.351,1.989,2.351c2.931,0,8.305-5.53,16.122-16.596c0.173-0.346,0.382-0.52,0.627-0.52
		c0.139,0.033,0.209,0.138,0.209,0.314c0,0.208-0.175,0.487-0.523,0.837l-2.251,3.088c-6.593,9.107-11.459,13.661-14.6,13.661
		c-1.5,0-2.73-0.565-3.689-1.696c-0.959-1.133-1.439-2.572-1.439-4.314c0-1.916,0.445-3.771,1.334-5.564
		c0.888-1.796,3.91-6.979,9.067-15.551c6.308-10.488,11.621-19.583,15.942-27.284c1.045,0.278,1.968,0.417,2.77,0.417
		C335.025,80.741,336.244,80.532,337.359,80.113z"/>
	<path fill="#646464" d="M344.965,117.148c-0.035,0.103-0.209,0.383-0.523,0.837l-2.25,3.088
		c-6.559,9.107-11.565,13.661-15.018,13.661c-1.639,0-3.009-0.582-4.108-1.75c-1.099-1.168-1.648-2.622-1.648-4.364
		c0-2.021,1.203-5.088,3.607-9.2l8.153-13.853c1.08,0.246,1.934,0.367,2.562,0.367c0.941,0,2.265-0.121,3.973-0.367l-11.865,19.498
		c-1.708,2.821-2.562,4.999-2.562,6.533c0,1.566,0.82,2.351,2.46,2.351c3.105,0,8.567-5.53,16.382-16.596
		c0.175-0.346,0.349-0.52,0.523-0.52C344.859,116.834,344.965,116.937,344.965,117.148z M344.206,95.532
		c0,1.222-0.514,2.361-1.542,3.424c-1.029,1.063-2.152,1.596-3.371,1.596c-1.568,0-2.352-0.785-2.352-2.353
		c0-1.15,0.54-2.256,1.62-3.319c1.08-1.061,2.211-1.594,3.398-1.594C343.457,93.286,344.206,94.036,344.206,95.532z"/>
	<path fill="#646464" d="M362.71,96.866c0,1.392-2.179,4.153-6.534,8.285c-0.208,1.082-0.314,2.021-0.314,2.824
		c0,2.019,0.924,5.227,2.771,9.615c0.939,2.196,1.411,4.044,1.411,5.542c0,3.135-1.524,5.854-4.573,8.153
		c-3.05,2.301-6.665,3.449-10.846,3.449c-2.37,0-4.26-0.671-5.671-2.01c-1.412-1.342-2.117-3.146-2.117-5.412
		c0-2.614,0.932-5.156,2.795-7.629c1.864-2.475,3.791-3.711,5.775-3.711c0.349,0,0.662,0.07,0.941,0.208l4.182-5.121
		c1.254-1.499,2.927-3.573,5.018-6.222c0.592-2.439,1.498-4.528,2.718-6.271c1.22-1.742,2.421-2.615,3.607-2.615
		C362.43,95.951,362.71,96.256,362.71,96.866z M355.444,117.486c0-1.044-0.035-2.081-0.104-3.108
		c-0.07-1.028-0.104-2.501-0.104-4.417c0-1.569,0.069-2.875,0.208-3.922c-1.952,2.477-4.774,5.959-8.467,10.455
		c0.661,0.557,0.992,1.236,0.992,2.037c0,2.058-1.69,3.451-5.07,4.182c-1.358,0.314-2.535,1.054-3.527,2.221
		c-0.993,1.168-1.489,2.399-1.489,3.687c0,1.394,0.504,2.56,1.515,3.501c1.01,0.94,2.266,1.412,3.764,1.412
		c2.927,0,5.705-1.699,8.337-5.097C354.128,125.039,355.444,121.389,355.444,117.486z"/>
	<path fill="#646464" d="M383.8,117.148c-0.035,0.103-0.209,0.383-0.523,0.837l-2.25,3.088
		c-6.558,9.107-11.565,13.661-15.017,13.661c-1.64,0-3.009-0.582-4.108-1.75c-1.1-1.168-1.649-2.622-1.649-4.364
		c0-2.021,1.203-5.088,3.607-9.2l8.154-13.853c1.081,0.246,1.934,0.367,2.561,0.367c0.942,0,2.265-0.121,3.973-0.367l-11.865,19.498
		c-1.708,2.821-2.562,4.999-2.562,6.533c0,1.566,0.819,2.351,2.459,2.351c3.105,0,8.566-5.53,16.383-16.596
		c0.174-0.346,0.349-0.52,0.523-0.52C383.695,116.834,383.8,116.937,383.8,117.148z M383.042,95.532
		c0,1.222-0.514,2.361-1.542,3.424s-2.152,1.596-3.371,1.596c-1.569,0-2.353-0.785-2.353-2.353c0-1.15,0.54-2.256,1.621-3.319
		c1.08-1.061,2.212-1.594,3.397-1.594C382.292,93.286,383.042,94.036,383.042,95.532z"/>
	<path fill="#646464" d="M401.546,96.866c0,1.392-2.18,4.153-6.534,8.285c-0.209,1.082-0.314,2.021-0.314,2.824
		c0,2.019,0.925,5.227,2.771,9.615c0.94,2.196,1.411,4.044,1.411,5.542c0,3.135-1.524,5.854-4.573,8.153
		c-3.05,2.301-6.666,3.449-10.846,3.449c-2.371,0-4.261-0.671-5.672-2.01c-1.412-1.342-2.116-3.146-2.116-5.412
		c0-2.614,0.932-5.156,2.796-7.629c1.864-2.475,3.79-3.711,5.775-3.711c0.349,0,0.661,0.07,0.941,0.208l4.182-5.121
		c1.254-1.499,2.927-3.573,5.018-6.222c0.592-2.439,1.498-4.528,2.718-6.271s2.421-2.615,3.607-2.615
		C401.266,95.951,401.546,96.256,401.546,96.866z M394.279,117.486c0-1.044-0.034-2.081-0.104-3.108
		c-0.07-1.028-0.104-2.501-0.104-4.417c0-1.569,0.069-2.875,0.208-3.922c-1.951,2.477-4.774,5.959-8.467,10.455
		c0.662,0.557,0.994,1.236,0.994,2.037c0,2.058-1.691,3.451-5.071,4.182c-1.358,0.314-2.535,1.054-3.528,2.221
		c-0.992,1.168-1.489,2.399-1.489,3.687c0,1.394,0.504,2.56,1.515,3.501c1.011,0.94,2.265,1.412,3.764,1.412
		c2.927,0,5.706-1.699,8.337-5.097C392.964,125.039,394.279,121.389,394.279,117.486z"/>
	<path fill="#646464" d="M546.695,72.536c0,1.707-1.706,3.162-5.121,4.364c-3.418,1.203-7.528,1.804-12.337,1.804
		c-6.272,0-13.955-0.96-23.051-2.875c-4.426,2.092-8.493,5.272-12.205,9.541c-3.708,4.269-7.744,10.41-12.1,18.425
		c2.162,0.346,3.955,0.627,5.386,0.834c1.948-4.494,4.738-6.742,8.362-6.742c2.474,0,3.71,0.958,3.71,2.875
		c0,1.533-0.826,2.78-2.481,3.738c-1.656,0.958-3.825,1.436-6.508,1.436h-1.045c-0.106,0.141-0.542,1.063-1.309,2.771
		c-0.87,2.021-2.125,3.736-3.764,5.148c-1.637,1.412-3.17,2.118-4.6,2.118c-0.486,0-0.729-0.105-0.729-0.314
		c0-0.173,0.174-0.314,0.521-0.419c2.405-0.733,4.843-3.953,7.318-9.67c-1.013-0.103-2.476-0.314-4.392-0.627l-0.992-0.207
		c-0.487,0.872-1.201,2.159-2.144,3.866c-2.996,5.367-5.428,9.2-7.291,11.5c-1.865,2.299-4.384,4.565-7.554,6.795
		c-8.434,5.924-17.145,8.886-26.133,8.886c-5.299,0-9.636-1.109-13.017-3.319c-3.38-2.213-5.068-5.061-5.068-8.548
		c0-1.742,0.513-3.23,1.541-4.467c1.027-1.238,2.256-1.857,3.686-1.857c2.3,0,3.45,1.168,3.45,3.504
		c0,1.078-0.358,2.011-1.072,2.796c-0.715,0.784-1.577,1.176-2.588,1.176c-1.708,0-2.562-0.818-2.562-2.456
		c0.105-0.839,0-1.255-0.313-1.255c-0.662,0-0.992,0.925-0.992,2.77c0,2.927,1.523,5.429,4.573,7.501
		c3.048,2.073,6.733,3.108,11.055,3.108c6.796,0,12.91-2.029,18.347-6.089c5.437-4.058,11.394-11.072,17.875-21.038
		c0.558-0.801,1.376-2.04,2.457-3.711h-0.991c-3.905,0-6.605,1.499-8.104,4.496c-0.173,0.487-0.364,0.73-0.573,0.73
		c-0.281,0-0.419-0.138-0.419-0.417c0-1.394,0.984-2.708,2.953-3.947c1.97-1.236,4.05-1.855,6.247-1.855h1.515
		c9.13-13.799,18.694-22.926,28.696-27.389c-2.685-0.59-5.471-1.271-8.364-2.039c-9.339-2.438-16.587-3.658-21.744-3.658
		c-1.044,0-2.037,0.035-2.979,0.103c1.499,2.894,2.249,6.151,2.249,9.776c0,7.596-2.973,14.758-8.913,21.483
		c-5.941,6.725-12.291,10.085-19.052,10.085c-2.857,0-5.173-0.896-6.952-2.691c-1.775-1.792-2.664-4.137-2.664-7.031
		c0-6.584,3.424-13.248,10.271-19.99c6.846-6.744,14.487-11.004,22.92-12.779c-2.649-3.938-6.709-5.908-12.179-5.908
		c-8.956,0-17.058,4.355-24.305,13.065c-0.594,0.595-0.924,0.891-0.993,0.891c-0.21,0-0.349-0.122-0.418-0.366
		c0-0.628,1.464-2.299,4.391-5.018c6.76-6.272,13.746-9.408,20.961-9.408c6.411,0,11.062,2.177,13.952,6.533
		c3.695-0.941,7.999-1.412,12.914-1.412c3.1,0,5.957,0.246,8.57,0.733c2.612,0.489,8.903,1.917,18.869,4.287
		c7.771-2.997,15.052-4.496,21.847-4.496c4.009,0,7.242,0.443,9.697,1.333C545.468,69.896,546.695,71.072,546.695,72.536z
		 M472.161,77.24c0-2.334-0.576-4.686-1.725-7.055c-8.017,1.009-15.524,4.834-22.528,11.472
		c-7.004,6.638-10.506,13.231-10.506,19.783c0,2.44,0.774,4.512,2.324,6.221c1.553,1.706,3.477,2.56,5.775,2.56
		c6.064,0,12.023-3.633,17.878-10.898C469.233,92.057,472.161,84.696,472.161,77.24z M498.399,100.866
		c0-1.499-0.855-2.25-2.562-2.25c-2.267,0-4.198,1.796-5.8,5.385l-0.42,0.939h1.307c2.159,0,3.947-0.382,5.359-1.147
		C497.693,103.024,498.399,102.051,498.399,100.866z M545.703,72.641c0-1.081-1.144-2.014-3.425-2.798
		c-2.279-0.783-5.025-1.175-8.232-1.175c-7.598,0-14.566,1.324-20.906,3.974l7.004,1.567c5.854,1.36,11.238,2.037,16.151,2.037
		c2.509,0,4.702-0.363,6.585-1.096C544.762,74.416,545.703,73.58,545.703,72.641z"/>
	<path fill="#646464" d="M524.142,117.148c0,0.279-1.048,1.554-3.142,3.827c-2.652,2.936-5.148,4.405-7.486,4.405
		c-2.652,0-3.98-1.534-3.98-4.599c0-0.976,0.208-2.213,0.626-3.711c-2.194,1.916-3.98,3.815-5.356,5.697
		c-1.377,1.88-3.755,5.714-7.136,11.498c-1.846-0.139-2.928-0.208-3.24-0.208c-0.138,0-1.201,0.07-3.188,0.208l8.573-13.902
		c4.286-6.97,6.429-11.291,6.429-12.962c0-0.977-0.403-1.464-1.205-1.464c-1.957,0-5.5,3.753-10.635,11.262
		c-0.314,0.489-0.593,0.735-0.836,0.735c-0.14-0.037-0.21-0.14-0.21-0.314c0.034-0.177,0.104-0.316,0.21-0.421l0.943-1.308
		c5.373-7.159,9.02-10.738,10.938-10.738c2.794,0,4.19,1.796,4.19,5.383c0,2.684-1.43,6.238-4.287,10.664
		c1.811-2.091,3.537-3.798,5.176-5.124c1.325-3.101,2.97-5.696,4.94-7.786c1.966-2.093,3.737-3.138,5.303-3.138
		c1.081,0,1.621,0.471,1.621,1.412c0,1.672-2.423,4.058-7.266,7.161c-0.767,0.488-1.915,1.201-3.448,2.143l-0.628,0.522
		c-0.49,1.604-0.732,2.927-0.732,3.973c0,2.927,1.101,4.391,3.301,4.391c2.722,0,5.69-2.254,8.902-6.767
		c0.697-0.767,1.135-1.151,1.309-1.151C524.038,116.834,524.142,116.937,524.142,117.148z"/>
	<path fill="#646464" d="M550.434,117.199c0,0.105-0.313,0.555-0.941,1.356l-2.25,2.819c-7.22,8.907-13.41,13.359-18.572,13.359
		c-2.44,0-4.491-0.879-6.147-2.638c-1.655-1.758-2.485-3.962-2.485-6.613c0-6.271,4.375-11.794,13.12-16.568
		c4.602-2.508,8.347-3.763,11.24-3.763c1.252,0,2.325,0.376,3.213,1.123c0.888,0.751,1.334,1.664,1.334,2.745
		c0,2.51-1.64,4.644-4.913,6.403c-3.278,1.758-8.747,3.405-16.414,4.939c-2.369,3.59-3.555,6.587-3.555,8.99
		c0,2.997,1.622,4.496,4.868,4.496c5.51,0,12.26-5.375,20.249-16.125c0.416-0.558,0.766-0.836,1.044-0.836
		C550.363,116.92,550.434,117.024,550.434,117.199z M546.017,107.504c0-1.115-0.611-1.674-1.828-1.674
		c-1.851,0-4.279,1.282-7.293,3.841c-3.017,2.562-5.968,5.881-8.859,9.957c5.019-1.288,9.271-3.108,12.754-5.461
		C544.274,111.814,546.017,109.593,546.017,107.504z"/>
	<path fill="#646464" d="M583.938,117.148c0,0.801-2.53,4.186-7.588,10.153c-4.186,4.956-7.501,7.433-9.942,7.433
		c-1.535,0-2.835-0.619-3.898-1.854c-1.064-1.238-1.596-2.728-1.596-4.47c0-1.358,0.679-3.257,2.036-5.697l-1.045,1.412
		c-3.206,4.112-5.558,6.865-7.055,8.259c-1.639,1.566-3.19,2.351-4.652,2.351c-1.535,0-2.823-0.601-3.867-1.802
		c-1.044-1.204-1.569-2.673-1.569-4.417c0-2.021,0.784-4.337,2.354-6.952l9.512-15.995c1.185,0.246,2.108,0.367,2.77,0.367
		c0.662,0,1.848-0.121,3.554-0.367l-12.438,20.491c-1.256,2.091-1.884,3.938-1.884,5.54c0,1.566,0.662,2.351,1.987,2.351
		c3.52,0,9.164-6.568,16.934-19.704l5.123-8.678c1.082,0.246,1.985,0.367,2.718,0.367c0.872,0,2.108-0.121,3.713-0.367
		l-8.362,13.644c-3.974,6.481-5.961,10.645-5.961,12.492c0,1.499,0.715,2.246,2.147,2.246c2.792,0,7.326-4.396,13.61-13.19
		l1.622-2.252l0.94-1.154c0.174-0.346,0.346-0.52,0.525-0.52C583.832,116.834,583.938,116.937,583.938,117.148z"/>
	<path fill="#646464" d="M631.371,80.638c-13.068,20.769-21.309,34.045-24.724,39.83c-3.45,5.887-5.174,9.598-5.174,11.131
		c0,1.566,0.717,2.351,2.145,2.351c3.178,0,8.566-5.53,16.176-16.596c0.208-0.346,0.399-0.52,0.574-0.52
		c0.208,0,0.315,0.103,0.315,0.314c-0.037,0.103-0.21,0.383-0.523,0.837l-2.25,3.088c-6.594,9.107-11.462,13.661-14.602,13.661
		c-1.606,0-2.914-0.601-3.926-1.802c-1.012-1.204-1.516-2.743-1.516-4.626c0-1.882,0.628-4.058,1.881-6.535
		c-6.101,8.645-10.628,12.963-13.589,12.963c-1.85,0-3.396-0.792-4.651-2.377c-1.256-1.585-1.884-3.58-1.884-5.984
		c0-5.749,3.571-10.958,10.716-15.627c5.679-3.73,10.141-5.594,13.381-5.594c2.159,0,3.242,1.044,3.242,3.138
		c0,0.975-0.298,2.072-0.891,3.29l18.661-31.255c1.148,0.349,2.28,0.522,3.396,0.522C628.408,80.846,629.491,80.778,631.371,80.638z
		 M606.178,108.706c0-1.846-0.854-2.771-2.562-2.771c-3.136,0-7.274,3.128-12.413,9.382c-5.142,6.256-7.71,11.299-7.71,15.132
		c0,2.334,0.958,3.501,2.873,3.501c2.788,0,7.579-4.842,14.375-14.529C604.365,114.191,606.178,110.621,606.178,108.706z"/>
</g>
<g>
	<path fill="#646464" d="M727.701,35.875c0,0.568-7.165,11.935-21.493,34.102c-11.488,17.747-19.426,30.834-23.813,39.265
		c-4.389,8.431-7.685,16.94-9.894,25.528c-2.272-0.506-4.23-0.757-5.87-0.757c-1.832,0-5.24,0.378-10.226,1.136
		c4.292-12.559,17.389-32.063,39.293-58.512c13.443-16.222,22.375-27.804,26.795-34.748c-16.413,19.425-32.888,35.446-49.425,48.059
		c-10.667,8.136-17.075,12.205-19.22,12.205c-0.506,0-0.758-0.188-0.758-0.567c0-0.442,0.379-0.82,1.138-1.136
		c16.031-7.252,39.292-27.816,69.779-61.688l1.231-1.324c1.196-1.26,1.894-1.892,2.081-1.892
		C727.574,35.544,727.701,35.655,727.701,35.875z"/>
</g>
<path fill-rule="evenodd" clip-rule="evenodd" fill="#C12332" d="M778.064,52.295c-0.409,0.876-0.876,1.739-1.049,2.711
	c-0.314,0.508-0.536,1.05-0.583,1.646c-0.693,1.707-1.177,3.478-1.575,5.279c-0.019,0.083-0.026,0.181-0.048,0.277
	c-0.65,1.964-1.291,3.929-1.942,5.892c-0.042,0.121-0.099,0.252-0.142,0.372c-0.818,1.667-1.635,3.333-2.455,5.013
	c-0.061,0.074-0.104,0.149-0.17,0.236c-0.959,1.592-2.122,3.006-3.354,4.393c-1.967,1.627-3.915,3.258-6.081,5.073
	c1.721-0.396,3.061-0.966,4.391-1.565c-0.01,0.633-0.636,0.912-0.811,1.437c-1.7,2.076-3.242,4.26-4.441,6.678
	c-1.163,1.661-2.066,3.466-2.793,5.369c-0.055,0.104-0.091,0.196-0.141,0.3c-0.89,1.667-1.596,3.415-2.843,4.869
	c-0.217,0.126-0.44,0.235-0.451,0.536c-1.249,1.396-2.514,2.805-3.761,4.201c-0.378,0.205-0.637,0.523-0.837,0.896
	c-1.025,0.985-2.057,1.983-3.082,2.969c-1.69,1.111-3.194,2.494-5.384,3.566c1.68,0.113,2.932-0.056,4.171-0.386
	c0.344,0.798-0.415,0.962-0.803,1.281c-1.368,1.095-3.056,1.543-4.838,2.156c0.838,0.707,1.922,0.385,2.839,0.935
	c-1.848,0.772-3.675,1.133-5.53,1.239c-0.791,0.055-1.185,0.328-1.392,1.136c-0.402,1.613-3.389,14.213-3.876,15.824
	c-0.109,0.365-0.285,0.759-0.717,0.691c-0.462-0.073-0.385-0.546-0.393-0.895c-0.042-2.739,3.208-16.261,4.394-18.683
	c0.293-0.601,0.76-1.145,0.693-1.883c0.371-1.029,0.68-2.085,0.938-3.183c-0.335,1.051-0.645,2.123-0.938,3.183
	c-1.058,0.531-1.893-0.449-3.404,1.743c-1.134-1.854-1.803-4.875-1.841-7.106c0.367,0.688,0.75,1.364,1.371,2.469
	c0.178-2.297,0.334-4.169,0.477-6.043c0.179-0.35,0.257-0.709,0.158-1.106c0.321-1.903,0.661-3.822,0.999-5.74
	c1.779-7.612,4.213-14.998,8.031-21.857c0.408-0.731,0.28-2.493,2.075-1.748c0.03,0.008,0.215-0.312,0.285-0.5
	c1.518-3.445,3.031-6.876,4.529-10.324c0.997-1.756,1.918-3.545,2.663-5.414c0.261-0.202,0.394-0.475,0.409-0.818
	c0.884-1.434,1.65-2.938,2.29-4.514c0.141-0.243,0.266-0.489,0.396-0.749c0.835-1.604,1.669-3.21,2.485-4.819
	c0.261-0.201,0.378-0.463,0.404-0.775c1.043-1.644,1.945-3.363,2.717-5.156c0.267-0.214,0.425-0.482,0.454-0.808
	c0.954-1.506,1.797-3.08,2.504-4.712c0.069-0.115,0.138-0.23,0.195-0.361c0.655-1.125,1.337-2.243,1.939-3.394
	c1.492-2.815,3.85-4.86,6.396-6.575c1.765-1.181,4.03-1.313,5.731,0.839c2.05,2.591,2.818,5.707,3.823,8.716
	c0.865,2.545,1.262,5.172,1.152,7.876c-0.545,3.95-3.109,6.715-5.761,9.431C776.495,52.668,777.173,51.244,778.064,52.295z"/>
<g>
	<path fill="#646464" d="M51.703,190.854v-24.14h15.844v2.108H54.083v8.874h11.356v1.972H54.083v11.186H51.703z"/>
	<path fill="#646464" d="M72.816,191.193c-0.839,0-1.615-0.142-2.329-0.425c-0.714-0.283-1.337-0.674-1.87-1.173
		c-0.533-0.499-0.947-1.083-1.241-1.751c-0.295-0.668-0.442-1.388-0.442-2.159c0-0.771,0.181-1.484,0.544-2.142
		c0.362-0.657,0.872-1.224,1.53-1.7c0.657-0.476,1.439-0.844,2.346-1.105c0.906-0.26,1.904-0.391,2.992-0.391
		c0.906,0,1.824,0.08,2.754,0.238c0.929,0.159,1.756,0.386,2.482,0.68v-1.598c0-1.564-0.442-2.805-1.326-3.723
		c-0.884-0.918-2.108-1.377-3.672-1.377c-0.907,0-1.836,0.182-2.788,0.544c-0.952,0.363-1.916,0.884-2.89,1.564l-0.816-1.53
		c2.29-1.541,4.51-2.312,6.664-2.312c2.221,0,3.966,0.624,5.236,1.87c1.269,1.247,1.904,2.97,1.904,5.168v7.99
		c0,0.635,0.283,0.952,0.85,0.952v2.04c-0.386,0.068-0.68,0.102-0.884,0.102c-0.589,0-1.048-0.147-1.377-0.442
		c-0.329-0.294-0.504-0.703-0.527-1.224l-0.068-1.394c-0.816,1.066-1.842,1.882-3.077,2.448
		C75.576,190.91,74.245,191.193,72.816,191.193z M73.36,189.425c1.201,0,2.306-0.226,3.315-0.68
		c1.008-0.453,1.773-1.054,2.295-1.802c0.204-0.204,0.357-0.425,0.459-0.663c0.102-0.238,0.153-0.459,0.153-0.663v-2.89
		c-0.771-0.294-1.57-0.521-2.397-0.68c-0.828-0.158-1.672-0.238-2.533-0.238c-1.632,0-2.958,0.34-3.978,1.02
		c-1.02,0.68-1.53,1.576-1.53,2.686c0,0.544,0.107,1.054,0.323,1.53s0.51,0.89,0.884,1.241c0.374,0.352,0.821,0.629,1.343,0.833
		S72.771,189.425,73.36,189.425z"/>
	<path fill="#646464" d="M85.669,181.945c0-1.246,0.215-2.425,0.646-3.536c0.43-1.11,1.037-2.08,1.819-2.907
		c0.782-0.827,1.717-1.479,2.805-1.955c1.088-0.476,2.289-0.714,3.604-0.714c1.677,0,3.139,0.38,4.386,1.139
		c1.247,0.76,2.187,1.785,2.822,3.077l-2.244,0.714c-0.499-0.906-1.196-1.615-2.091-2.125c-0.896-0.51-1.887-0.765-2.975-0.765
		c-0.907,0-1.751,0.182-2.533,0.544c-0.782,0.363-1.462,0.856-2.04,1.479c-0.578,0.624-1.032,1.366-1.36,2.227
		c-0.329,0.862-0.493,1.802-0.493,2.822c0,0.998,0.17,1.938,0.51,2.822c0.34,0.884,0.804,1.649,1.394,2.295
		c0.589,0.646,1.275,1.156,2.057,1.53c0.782,0.374,1.615,0.561,2.499,0.561c0.566,0,1.127-0.079,1.683-0.238
		c0.555-0.158,1.071-0.379,1.547-0.663c0.476-0.283,0.884-0.606,1.224-0.969c0.34-0.362,0.578-0.748,0.714-1.156l2.278,0.68
		c-0.25,0.635-0.612,1.219-1.088,1.751c-0.476,0.533-1.037,0.998-1.683,1.394s-1.36,0.703-2.142,0.918
		c-0.782,0.215-1.593,0.323-2.431,0.323c-1.292,0-2.482-0.244-3.57-0.731c-1.088-0.487-2.029-1.156-2.822-2.006
		s-1.411-1.83-1.853-2.941C85.89,184.405,85.669,183.215,85.669,181.945z"/>
	<path fill="#646464" d="M111.1,191.193c-1.927,0-3.36-0.64-4.301-1.921c-0.941-1.28-1.411-3.19-1.411-5.729V173.14h2.312v9.996
		c0,4.012,1.371,6.018,4.114,6.018c0.68,0,1.348-0.113,2.006-0.34c0.657-0.226,1.263-0.555,1.819-0.986
		c0.555-0.431,1.054-0.94,1.496-1.53c0.442-0.589,0.799-1.258,1.071-2.006V173.14h2.312v14.722c0,0.635,0.272,0.952,0.816,0.952
		v2.04c-0.272,0.045-0.493,0.068-0.663,0.068s-0.289,0-0.357,0c-0.544-0.023-0.986-0.215-1.326-0.578
		c-0.34-0.362-0.51-0.85-0.51-1.462v-2.04c-0.771,1.383-1.819,2.454-3.145,3.213C114.007,190.814,112.596,191.193,111.1,191.193z"/>
	<path fill="#646464" d="M125.856,166.034h2.312v20.808c0,0.658,0.181,1.173,0.544,1.547c0.362,0.374,0.873,0.561,1.53,0.561
		c0.249,0,0.544-0.034,0.884-0.102c0.34-0.068,0.657-0.159,0.952-0.272l0.408,1.87c-0.431,0.182-0.958,0.329-1.581,0.442
		c-0.624,0.113-1.162,0.17-1.615,0.17c-1.065,0-1.904-0.3-2.516-0.901c-0.612-0.601-0.918-1.445-0.918-2.533V166.034z"/>
	<path fill="#646464" d="M143.501,190.003c-0.136,0.068-0.334,0.159-0.595,0.272c-0.261,0.114-0.561,0.227-0.901,0.34
		c-0.34,0.113-0.726,0.215-1.156,0.306c-0.431,0.09-0.884,0.136-1.36,0.136c-0.499,0-0.975-0.068-1.428-0.204
		c-0.454-0.136-0.85-0.345-1.19-0.629c-0.34-0.283-0.612-0.64-0.816-1.071c-0.204-0.43-0.306-0.929-0.306-1.496v-12.682h-2.448
		v-1.836h2.448v-5.984h2.312v5.984h4.08v1.836h-4.08v12.036c0.045,0.658,0.277,1.139,0.697,1.445
		c0.419,0.306,0.901,0.459,1.445,0.459c0.657,0,1.235-0.107,1.734-0.323c0.499-0.215,0.816-0.368,0.952-0.459L143.501,190.003z"/>
	<path fill="#646464" d="M150.846,191.193c-0.839,0-1.615-0.142-2.329-0.425c-0.714-0.283-1.337-0.674-1.87-1.173
		c-0.533-0.499-0.947-1.083-1.241-1.751c-0.295-0.668-0.442-1.388-0.442-2.159c0-0.771,0.181-1.484,0.544-2.142
		c0.362-0.657,0.872-1.224,1.53-1.7c0.657-0.476,1.439-0.844,2.346-1.105c0.906-0.26,1.904-0.391,2.992-0.391
		c0.906,0,1.824,0.08,2.754,0.238c0.929,0.159,1.756,0.386,2.482,0.68v-1.598c0-1.564-0.442-2.805-1.326-3.723
		c-0.884-0.918-2.108-1.377-3.672-1.377c-0.907,0-1.836,0.182-2.788,0.544c-0.952,0.363-1.916,0.884-2.89,1.564l-0.816-1.53
		c2.29-1.541,4.51-2.312,6.664-2.312c2.221,0,3.966,0.624,5.236,1.87c1.269,1.247,1.904,2.97,1.904,5.168v7.99
		c0,0.635,0.283,0.952,0.85,0.952v2.04c-0.386,0.068-0.68,0.102-0.884,0.102c-0.589,0-1.048-0.147-1.377-0.442
		c-0.329-0.294-0.504-0.703-0.527-1.224l-0.068-1.394c-0.816,1.066-1.842,1.882-3.077,2.448
		C153.605,190.91,152.274,191.193,150.846,191.193z M151.39,189.425c1.201,0,2.306-0.226,3.315-0.68
		c1.008-0.453,1.773-1.054,2.295-1.802c0.204-0.204,0.357-0.425,0.459-0.663c0.102-0.238,0.153-0.459,0.153-0.663v-2.89
		c-0.771-0.294-1.57-0.521-2.397-0.68c-0.828-0.158-1.672-0.238-2.533-0.238c-1.632,0-2.958,0.34-3.978,1.02
		c-1.02,0.68-1.53,1.576-1.53,2.686c0,0.544,0.107,1.054,0.323,1.53s0.51,0.89,0.884,1.241c0.374,0.352,0.821,0.629,1.343,0.833
		S150.8,189.425,151.39,189.425z"/>
	<path fill="#646464" d="M172.198,191.193c-1.224,0-2.358-0.255-3.4-0.765c-1.042-0.51-1.938-1.185-2.686-2.023
		c-0.748-0.838-1.332-1.807-1.751-2.907c-0.419-1.099-0.629-2.25-0.629-3.451c0-1.246,0.204-2.431,0.612-3.553
		c0.408-1.122,0.969-2.102,1.683-2.941c0.714-0.838,1.564-1.501,2.55-1.989c0.986-0.487,2.068-0.731,3.247-0.731
		c1.496,0,2.822,0.391,3.978,1.173c1.156,0.782,2.062,1.729,2.72,2.839v-10.812h2.312v21.828c0,0.635,0.272,0.952,0.816,0.952v2.04
		c-0.34,0.068-0.612,0.102-0.816,0.102c-0.544,0-1.02-0.175-1.428-0.527c-0.408-0.352-0.612-0.776-0.612-1.275v-1.734
		c-0.703,1.156-1.655,2.074-2.856,2.754C174.736,190.854,173.49,191.193,172.198,191.193z M172.708,189.153
		c0.566,0,1.173-0.113,1.819-0.34c0.646-0.226,1.252-0.538,1.819-0.935c0.566-0.396,1.048-0.861,1.445-1.394
		c0.396-0.532,0.64-1.105,0.731-1.717v-5.474c-0.227-0.612-0.556-1.184-0.986-1.717c-0.431-0.532-0.924-1.003-1.479-1.411
		c-0.556-0.408-1.151-0.725-1.785-0.952c-0.635-0.226-1.258-0.34-1.87-0.34c-0.952,0-1.813,0.204-2.584,0.612
		c-0.771,0.408-1.434,0.947-1.989,1.615c-0.556,0.669-0.981,1.434-1.275,2.295c-0.295,0.862-0.442,1.746-0.442,2.652
		c0,0.952,0.17,1.859,0.51,2.72c0.34,0.862,0.804,1.615,1.394,2.261c0.589,0.646,1.286,1.162,2.091,1.547
		C170.911,188.961,171.778,189.153,172.708,189.153z"/>
	<path fill="#646464" d="M202.015,191.193c-1.224,0-2.358-0.255-3.4-0.765c-1.042-0.51-1.938-1.185-2.686-2.023
		c-0.748-0.838-1.332-1.807-1.751-2.907c-0.419-1.099-0.629-2.25-0.629-3.451c0-1.246,0.204-2.431,0.612-3.553
		c0.408-1.122,0.969-2.102,1.683-2.941c0.714-0.838,1.564-1.501,2.55-1.989c0.986-0.487,2.068-0.731,3.247-0.731
		c1.496,0,2.822,0.391,3.978,1.173c1.156,0.782,2.062,1.729,2.72,2.839v-10.812h2.312v21.828c0,0.635,0.272,0.952,0.816,0.952v2.04
		c-0.34,0.068-0.612,0.102-0.816,0.102c-0.544,0-1.02-0.175-1.428-0.527c-0.408-0.352-0.612-0.776-0.612-1.275v-1.734
		c-0.703,1.156-1.655,2.074-2.856,2.754C204.553,190.854,203.307,191.193,202.015,191.193z M202.525,189.153
		c0.566,0,1.173-0.113,1.819-0.34c0.646-0.226,1.252-0.538,1.819-0.935c0.566-0.396,1.048-0.861,1.445-1.394
		c0.396-0.532,0.64-1.105,0.731-1.717v-5.474c-0.227-0.612-0.556-1.184-0.986-1.717c-0.431-0.532-0.924-1.003-1.479-1.411
		c-0.556-0.408-1.151-0.725-1.785-0.952c-0.635-0.226-1.258-0.34-1.87-0.34c-0.952,0-1.813,0.204-2.584,0.612
		c-0.771,0.408-1.434,0.947-1.989,1.615c-0.556,0.669-0.981,1.434-1.275,2.295c-0.295,0.862-0.442,1.746-0.442,2.652
		c0,0.952,0.17,1.859,0.51,2.72c0.34,0.862,0.804,1.615,1.394,2.261c0.589,0.646,1.286,1.162,2.091,1.547
		C200.729,188.961,201.595,189.153,202.525,189.153z"/>
	<path fill="#646464" d="M223.537,191.193c-1.292,0-2.477-0.244-3.553-0.731c-1.077-0.487-2.012-1.156-2.805-2.006
		s-1.411-1.83-1.853-2.941c-0.442-1.11-0.663-2.3-0.663-3.57c0-1.246,0.221-2.419,0.663-3.519c0.442-1.1,1.054-2.063,1.836-2.89
		c0.782-0.827,1.717-1.484,2.805-1.972c1.088-0.487,2.267-0.731,3.536-0.731c1.292,0,2.476,0.244,3.553,0.731
		c1.076,0.488,2,1.151,2.771,1.989c0.77,0.839,1.371,1.802,1.802,2.89c0.43,1.088,0.646,2.244,0.646,3.468c0,0.182,0,0.363,0,0.544
		c0,0.182-0.012,0.306-0.034,0.374h-15.164c0.068,0.952,0.289,1.831,0.663,2.635c0.374,0.805,0.855,1.502,1.445,2.091
		c0.589,0.589,1.263,1.048,2.023,1.377c0.759,0.329,1.569,0.493,2.431,0.493c0.566,0,1.133-0.079,1.7-0.238
		c0.566-0.158,1.088-0.374,1.564-0.646s0.906-0.606,1.292-1.003c0.385-0.396,0.68-0.833,0.884-1.309l2.006,0.544
		c-0.272,0.658-0.658,1.253-1.156,1.785c-0.499,0.533-1.077,0.998-1.734,1.394c-0.658,0.396-1.383,0.703-2.176,0.918
		C225.225,191.085,224.398,191.193,223.537,191.193z M230.065,181.062c-0.068-0.952-0.289-1.819-0.663-2.601
		c-0.374-0.782-0.85-1.456-1.428-2.023c-0.578-0.566-1.247-1.008-2.006-1.326c-0.76-0.317-1.57-0.476-2.431-0.476
		c-0.862,0-1.678,0.159-2.448,0.476c-0.771,0.318-1.445,0.76-2.023,1.326c-0.578,0.567-1.043,1.247-1.394,2.04
		c-0.352,0.793-0.561,1.655-0.629,2.584H230.065z"/>
	<path fill="#646464" d="M244.99,190.854v-24.14h9.996c1.042,0,2,0.221,2.873,0.663c0.872,0.442,1.626,1.02,2.261,1.734
		c0.635,0.714,1.133,1.525,1.496,2.431c0.362,0.907,0.544,1.825,0.544,2.754c0,0.998-0.17,1.955-0.51,2.873
		s-0.816,1.729-1.428,2.431c-0.612,0.703-1.343,1.27-2.193,1.7c-0.85,0.431-1.796,0.646-2.839,0.646h-7.82v8.908H244.99z
		 M247.37,179.837h7.718c0.702,0,1.343-0.153,1.921-0.459c0.578-0.306,1.071-0.714,1.479-1.224c0.408-0.51,0.725-1.099,0.952-1.768
		c0.226-0.668,0.34-1.366,0.34-2.091c0-0.748-0.13-1.456-0.391-2.125c-0.261-0.668-0.612-1.252-1.054-1.751
		c-0.442-0.498-0.964-0.889-1.564-1.173c-0.601-0.283-1.23-0.425-1.887-0.425h-7.514V179.837z"/>
	<path fill="#646464" d="M271.544,191.193c-1.383,0-2.732-0.227-4.046-0.68c-1.315-0.453-2.448-1.11-3.4-1.972l1.054-1.564
		c0.997,0.816,2.011,1.428,3.043,1.836c1.031,0.408,2.136,0.612,3.315,0.612c1.428,0,2.567-0.289,3.417-0.867
		s1.275-1.399,1.275-2.465c0-0.499-0.114-0.913-0.34-1.241c-0.227-0.328-0.561-0.617-1.003-0.867
		c-0.442-0.249-0.998-0.47-1.666-0.663c-0.669-0.192-1.445-0.391-2.329-0.595c-1.02-0.249-1.904-0.499-2.652-0.748
		c-0.748-0.249-1.366-0.532-1.853-0.85c-0.488-0.317-0.85-0.708-1.088-1.173c-0.238-0.464-0.357-1.048-0.357-1.751
		c0-0.884,0.176-1.666,0.527-2.346c0.351-0.68,0.827-1.241,1.428-1.683c0.601-0.442,1.303-0.776,2.108-1.003
		c0.804-0.226,1.66-0.34,2.567-0.34c1.36,0,2.595,0.221,3.706,0.663c1.11,0.442,2.006,1.026,2.686,1.751l-1.122,1.36
		c-0.658-0.68-1.457-1.19-2.397-1.53c-0.941-0.34-1.921-0.51-2.941-0.51c-0.612,0-1.179,0.063-1.7,0.187
		c-0.522,0.125-0.981,0.323-1.377,0.595c-0.397,0.272-0.709,0.618-0.935,1.037c-0.227,0.419-0.34,0.913-0.34,1.479
		c0,0.476,0.079,0.861,0.238,1.156c0.158,0.295,0.419,0.55,0.782,0.765c0.362,0.216,0.821,0.408,1.377,0.578
		c0.555,0.17,1.229,0.346,2.023,0.527c1.133,0.272,2.13,0.544,2.992,0.816s1.581,0.59,2.159,0.952
		c0.578,0.363,1.014,0.805,1.309,1.326c0.294,0.522,0.442,1.156,0.442,1.904c0,1.632-0.624,2.924-1.87,3.876
		C275.329,190.717,273.652,191.193,271.544,191.193z"/>
	<path fill="#646464" d="M282.22,169.434v-3.4h2.312v3.4H282.22z M282.22,190.854V173.14h2.312v17.714H282.22z"/>
	<path fill="#646464" d="M288.408,181.945c0-1.246,0.215-2.425,0.646-3.536c0.43-1.11,1.037-2.08,1.819-2.907
		c0.782-0.827,1.717-1.479,2.805-1.955c1.088-0.476,2.289-0.714,3.604-0.714c1.677,0,3.139,0.38,4.386,1.139
		c1.247,0.76,2.187,1.785,2.822,3.077l-2.244,0.714c-0.499-0.906-1.196-1.615-2.091-2.125c-0.896-0.51-1.887-0.765-2.975-0.765
		c-0.907,0-1.751,0.182-2.533,0.544c-0.782,0.363-1.462,0.856-2.04,1.479c-0.578,0.624-1.032,1.366-1.36,2.227
		c-0.329,0.862-0.493,1.802-0.493,2.822c0,0.998,0.17,1.938,0.51,2.822c0.34,0.884,0.804,1.649,1.394,2.295
		c0.589,0.646,1.275,1.156,2.057,1.53c0.782,0.374,1.615,0.561,2.499,0.561c0.566,0,1.127-0.079,1.683-0.238
		c0.555-0.158,1.071-0.379,1.547-0.663c0.476-0.283,0.884-0.606,1.224-0.969c0.34-0.362,0.578-0.748,0.714-1.156l2.278,0.68
		c-0.25,0.635-0.612,1.219-1.088,1.751c-0.476,0.533-1.037,0.998-1.683,1.394s-1.36,0.703-2.142,0.918
		c-0.782,0.215-1.593,0.323-2.431,0.323c-1.292,0-2.482-0.244-3.57-0.731c-1.088-0.487-2.029-1.156-2.822-2.006
		s-1.411-1.83-1.853-2.941C288.628,184.405,288.408,183.215,288.408,181.945z"/>
	<path fill="#646464" d="M315.676,191.193c-1.292,0-2.471-0.244-3.536-0.731c-1.066-0.487-1.989-1.15-2.771-1.989
		c-0.782-0.838-1.389-1.813-1.819-2.924c-0.431-1.11-0.646-2.278-0.646-3.502c0-1.246,0.221-2.425,0.663-3.536
		c0.442-1.11,1.054-2.085,1.836-2.924c0.782-0.838,1.705-1.507,2.771-2.006c1.065-0.499,2.232-0.748,3.502-0.748
		c1.269,0,2.442,0.25,3.519,0.748c1.076,0.499,2.006,1.167,2.788,2.006c0.782,0.839,1.394,1.814,1.836,2.924
		c0.442,1.111,0.663,2.29,0.663,3.536c0,1.224-0.215,2.392-0.646,3.502c-0.431,1.111-1.037,2.086-1.819,2.924
		c-0.782,0.839-1.711,1.502-2.788,1.989C318.152,190.95,316.968,191.193,315.676,191.193z M309.25,182.082
		c0,0.998,0.17,1.921,0.51,2.771c0.34,0.85,0.799,1.598,1.377,2.244s1.258,1.15,2.04,1.513c0.782,0.363,1.615,0.544,2.499,0.544
		c0.884,0,1.717-0.187,2.499-0.561c0.782-0.374,1.467-0.884,2.057-1.53s1.054-1.399,1.394-2.261c0.34-0.861,0.51-1.791,0.51-2.788
		c0-0.975-0.17-1.898-0.51-2.771c-0.34-0.873-0.805-1.632-1.394-2.278s-1.275-1.156-2.057-1.53
		c-0.782-0.374-1.615-0.561-2.499-0.561c-0.884,0-1.712,0.187-2.482,0.561c-0.771,0.374-1.451,0.89-2.04,1.547
		c-0.59,0.658-1.054,1.423-1.394,2.295C309.419,180.149,309.25,181.084,309.25,182.082z"/>
	<path fill="#646464" d="M328.459,166.034h2.312v20.808c0,0.658,0.181,1.173,0.544,1.547c0.362,0.374,0.873,0.561,1.53,0.561
		c0.249,0,0.544-0.034,0.884-0.102c0.34-0.068,0.657-0.159,0.952-0.272l0.408,1.87c-0.431,0.182-0.958,0.329-1.581,0.442
		c-0.624,0.113-1.162,0.17-1.615,0.17c-1.065,0-1.904-0.3-2.516-0.901c-0.612-0.601-0.918-1.445-0.918-2.533V166.034z"/>
	<path fill="#646464" d="M345.153,191.193c-1.292,0-2.471-0.244-3.536-0.731c-1.066-0.487-1.989-1.15-2.771-1.989
		c-0.782-0.838-1.389-1.813-1.819-2.924c-0.431-1.11-0.646-2.278-0.646-3.502c0-1.246,0.221-2.425,0.663-3.536
		c0.442-1.11,1.054-2.085,1.836-2.924c0.782-0.838,1.705-1.507,2.771-2.006c1.065-0.499,2.232-0.748,3.502-0.748
		c1.269,0,2.442,0.25,3.519,0.748c1.076,0.499,2.006,1.167,2.788,2.006c0.782,0.839,1.394,1.814,1.836,2.924
		c0.442,1.111,0.663,2.29,0.663,3.536c0,1.224-0.215,2.392-0.646,3.502c-0.431,1.111-1.037,2.086-1.819,2.924
		c-0.782,0.839-1.711,1.502-2.788,1.989C347.629,190.95,346.445,191.193,345.153,191.193z M338.727,182.082
		c0,0.998,0.17,1.921,0.51,2.771c0.34,0.85,0.799,1.598,1.377,2.244s1.258,1.15,2.04,1.513c0.782,0.363,1.615,0.544,2.499,0.544
		c0.884,0,1.717-0.187,2.499-0.561c0.782-0.374,1.467-0.884,2.057-1.53s1.054-1.399,1.394-2.261c0.34-0.861,0.51-1.791,0.51-2.788
		c0-0.975-0.17-1.898-0.51-2.771c-0.34-0.873-0.805-1.632-1.394-2.278s-1.275-1.156-2.057-1.53
		c-0.782-0.374-1.615-0.561-2.499-0.561c-0.884,0-1.712,0.187-2.482,0.561c-0.771,0.374-1.451,0.89-2.04,1.547
		c-0.59,0.658-1.054,1.423-1.394,2.295C338.896,180.149,338.727,181.084,338.727,182.082z"/>
	<path fill="#646464" d="M364.94,191.091c-1.224,0-2.34-0.255-3.349-0.765c-1.009-0.51-1.882-1.184-2.618-2.023
		c-0.737-0.838-1.309-1.802-1.717-2.89c-0.408-1.088-0.612-2.21-0.612-3.366c0-1.224,0.198-2.397,0.595-3.519
		c0.396-1.122,0.957-2.102,1.683-2.941c0.725-0.838,1.592-1.507,2.601-2.006c1.008-0.499,2.125-0.748,3.349-0.748
		c1.519,0,2.833,0.38,3.944,1.139c1.11,0.76,2.062,1.717,2.856,2.873v-3.706h2.074v17.782c0,1.224-0.232,2.306-0.697,3.247
		c-0.465,0.94-1.088,1.728-1.87,2.363c-0.782,0.634-1.7,1.11-2.754,1.428c-1.054,0.317-2.171,0.476-3.349,0.476
		c-2.04,0-3.684-0.363-4.93-1.088c-1.247-0.726-2.255-1.7-3.026-2.924l1.428-1.122c0.702,1.133,1.632,1.966,2.788,2.499
		c1.156,0.533,2.402,0.799,3.74,0.799c0.861,0,1.677-0.119,2.448-0.357c0.77-0.238,1.445-0.59,2.023-1.054
		c0.578-0.465,1.037-1.054,1.377-1.768c0.34-0.714,0.51-1.547,0.51-2.499v-3.502c-0.68,1.134-1.609,2.029-2.788,2.686
		C367.467,190.763,366.232,191.091,364.94,191.091z M365.586,189.153c0.68,0,1.349-0.124,2.006-0.374
		c0.657-0.249,1.252-0.583,1.785-1.003c0.533-0.419,0.98-0.889,1.343-1.411c0.362-0.521,0.6-1.054,0.714-1.598v-5.474
		c-0.25-0.634-0.589-1.224-1.02-1.768s-0.918-1.008-1.462-1.394c-0.544-0.385-1.128-0.691-1.751-0.918
		c-0.624-0.226-1.252-0.34-1.887-0.34c-0.998,0-1.887,0.21-2.669,0.629c-0.782,0.42-1.445,0.969-1.989,1.649
		c-0.544,0.68-0.958,1.451-1.241,2.312c-0.284,0.862-0.425,1.734-0.425,2.618c0,0.952,0.17,1.859,0.51,2.72
		c0.34,0.861,0.811,1.615,1.411,2.261s1.297,1.156,2.091,1.53C363.795,188.966,364.656,189.153,365.586,189.153z"/>
	<path fill="#646464" d="M380.206,169.773l-1.53-0.578l2.006-3.162h2.448L380.206,169.773z M378.846,190.854V173.14h2.312v17.714
		H378.846z"/>
	<path fill="#646464" d="M390.711,191.193c-0.839,0-1.615-0.142-2.329-0.425c-0.714-0.283-1.337-0.674-1.87-1.173
		c-0.533-0.499-0.947-1.083-1.241-1.751c-0.295-0.668-0.442-1.388-0.442-2.159c0-0.771,0.181-1.484,0.544-2.142
		c0.362-0.657,0.872-1.224,1.53-1.7c0.657-0.476,1.439-0.844,2.346-1.105c0.906-0.26,1.904-0.391,2.992-0.391
		c0.906,0,1.824,0.08,2.754,0.238c0.93,0.159,1.757,0.386,2.482,0.68v-1.598c0-1.564-0.442-2.805-1.326-3.723
		s-2.108-1.377-3.672-1.377c-0.907,0-1.836,0.182-2.788,0.544c-0.952,0.363-1.916,0.884-2.89,1.564l-0.816-1.53
		c2.29-1.541,4.51-2.312,6.664-2.312c2.221,0,3.966,0.624,5.236,1.87c1.269,1.247,1.903,2.97,1.903,5.168v7.99
		c0,0.635,0.283,0.952,0.851,0.952v2.04c-0.386,0.068-0.681,0.102-0.885,0.102c-0.589,0-1.048-0.147-1.377-0.442
		c-0.328-0.294-0.504-0.703-0.526-1.224l-0.068-1.394c-0.816,1.066-1.842,1.882-3.077,2.448
		C393.471,190.91,392.14,191.193,390.711,191.193z M391.255,189.425c1.201,0,2.307-0.226,3.315-0.68
		c1.008-0.453,1.773-1.054,2.295-1.802c0.204-0.204,0.357-0.425,0.459-0.663c0.103-0.238,0.153-0.459,0.153-0.663v-2.89
		c-0.771-0.294-1.57-0.521-2.397-0.68c-0.827-0.158-1.672-0.238-2.533-0.238c-1.631,0-2.958,0.34-3.978,1.02
		c-1.02,0.68-1.53,1.576-1.53,2.686c0,0.544,0.107,1.054,0.323,1.53s0.51,0.89,0.884,1.241c0.374,0.352,0.821,0.629,1.343,0.833
		S390.666,189.425,391.255,189.425z"/>
	<path fill="#646464" d="M405.161,193.607l0.578-2.856h-0.781v-3.23h2.243v3.23l-0.85,2.856H405.161z"/>
	<path fill="#646464" d="M431.375,188.881c1.518,0,2.782-0.289,3.791-0.867c1.008-0.578,1.813-1.337,2.414-2.278
		c0.6-0.94,1.02-2.011,1.258-3.213c0.237-1.201,0.356-2.414,0.356-3.638v-12.172h2.38v12.172c0,1.632-0.182,3.179-0.544,4.641
		s-0.946,2.749-1.751,3.859c-0.805,1.111-1.853,1.995-3.145,2.652c-1.292,0.658-2.868,0.986-4.727,0.986
		c-1.903,0-3.508-0.345-4.811-1.037c-1.304-0.691-2.352-1.603-3.145-2.737c-0.794-1.133-1.36-2.425-1.7-3.876
		c-0.34-1.45-0.511-2.946-0.511-4.488v-12.172h2.347v12.172c0,1.27,0.124,2.504,0.374,3.706c0.249,1.202,0.674,2.267,1.274,3.196
		c0.601,0.93,1.399,1.678,2.397,2.244C428.632,188.598,429.879,188.881,431.375,188.881z"/>
	<path fill="#646464" d="M465.408,184.631c0,0.907-0.182,1.74-0.544,2.499c-0.362,0.76-0.85,1.417-1.462,1.972
		c-0.611,0.556-1.326,0.986-2.142,1.292c-0.816,0.306-1.689,0.459-2.618,0.459h-11.39v-24.14h11.628
		c0.838,0,1.598,0.182,2.277,0.544c0.681,0.363,1.259,0.833,1.734,1.411s0.844,1.236,1.105,1.972
		c0.26,0.737,0.391,1.479,0.391,2.227c0,1.224-0.306,2.34-0.918,3.349c-0.612,1.009-1.462,1.763-2.55,2.261
		c1.382,0.408,2.476,1.167,3.28,2.278C465.006,181.866,465.408,183.158,465.408,184.631z M449.633,168.788v8.908h8.296
		c0.589,0,1.139-0.124,1.648-0.374c0.511-0.249,0.946-0.578,1.31-0.986c0.362-0.408,0.646-0.878,0.85-1.411
		c0.204-0.532,0.307-1.093,0.307-1.683c0-0.612-0.097-1.19-0.289-1.734c-0.193-0.544-0.465-1.014-0.816-1.411
		s-0.765-0.714-1.241-0.952c-0.476-0.238-0.997-0.357-1.563-0.357H449.633z M463.028,184.224c0-0.589-0.102-1.162-0.306-1.717
		c-0.204-0.555-0.493-1.042-0.867-1.462c-0.374-0.419-0.815-0.759-1.326-1.02c-0.51-0.26-1.06-0.391-1.648-0.391h-9.248v9.146h9.01
		c0.612,0,1.185-0.124,1.717-0.374c0.532-0.249,0.997-0.583,1.395-1.003c0.396-0.419,0.708-0.906,0.935-1.462
		C462.915,185.385,463.028,184.813,463.028,184.224z"/>
	<path fill="#646464" d="M476.866,166.713h2.006l10.03,24.14h-2.516l-3.128-7.548h-10.847l-3.094,7.548h-2.55L476.866,166.713z
		 M482.714,181.436l-4.861-11.934l-4.931,11.934H482.714z"/>
</g>
</svg>
